<?xml version="1.0" encoding="utf-8" ?>
<svg xmlns="http://www.w3.org/2000/svg" xmlns:xlink="http://www.w3.org/1999/xlink" width="3000" height="3000">
	<path d="M1265.7 585.601C1266.48 585.582 1267.27 585.463 1268.06 585.544C1268.17 585.556 1272.16 586.485 1272.41 586.634C1280.34 591.421 1538.46 898.254 1559.89 927.366Q1515.83 962.366 1472.78 998.609C1446.1 972.467 1419.13 935.858 1394.86 906.762Q1321.42 819.299 1249.08 730.919L538.627 1328.88L347.278 1489.46C311.454 1519.53 275.068 1549.12 239.93 1579.98L629.852 2042.29L748.371 2183.42C766.645 2205.12 788.904 2226.98 804.124 2250.73C815.357 2240.15 827.761 2233.05 839.698 2223.64C856.417 2210.46 872.369 2195.95 888.599 2182.16L1142.58 1967.52L1598.81 1583.49C1669.73 1523.82 1739.96 1463.09 1811.47 1404.15L1670.19 1235.57Q1654.57 1217.33 1639.66 1198.5C1669.47 1174.81 1698.6 1150.77 1726.93 1125.3C1745.58 1145.92 1763.08 1167.85 1780.97 1189.14L1878.5 1305.23L1926.81 1362.81C1936.06 1373.85 1947.69 1385.45 1954.7 1398C1957.32 1402.69 1955.29 1405.32 1953.96 1410.24C1953.07 1413.51 1952.32 1416.71 1950.68 1419.72C1945.41 1429.39 1819.76 1530.46 1797.77 1548.92L1104.16 2129.64L875.334 2320.58C850.788 2341.31 827.92 2363.71 803.044 2384.18C799.367 2387.2 796.673 2389.24 792.08 2390.56C785.58 2388.6 778.868 2380.28 774.261 2375.29C739.385 2337.46 707.347 2295.95 674.292 2256.47L482.13 2026.96L245.206 1743.83C202.263 1692.47 157.863 1641.77 116.622 1589.05C111.46 1582.45 101.538 1571.27 101.893 1562.61C103.235 1558.75 104.771 1556.73 107.811 1553.99C150.137 1515.86 195.945 1480.51 239.569 1443.75L545.182 1187.38L1265.7 585.601Z"/>
	<path d="M1264.65 1763.78C1231.85 1726.79 1200.88 1687.7 1169.16 1649.75C1145.09 1620.94 1045.67 1507.89 1037.06 1484.39C1051.52 1465.2 1088.57 1438.7 1108.16 1422.34L1239.64 1311.77L1876.61 778.058L2088.17 601.716L2161.18 541.095C2173.39 530.985 2185.44 519.828 2198.22 510.504C2200.49 508.851 2202.22 507.847 2205.04 507.358C2207.23 506.98 2208.24 507.515 2210.01 508.834C2220.11 516.391 2241.66 544.899 2251.02 555.872L2367.19 693.522L2851 1269.07C2857.35 1276.62 2892.54 1315.67 2892.04 1322.11C2891.46 1329.53 2889.09 1341.04 2883.79 1346.25C2874.64 1355.22 2863.32 1362.8 2853.38 1370.93C2832.89 1387.68 2812.84 1405.06 2792.51 1422L2596.23 1586.13L1910.65 2160.01C1910.18 2159.88 1909.7 2159.75 1909.23 2159.61C1905.38 2158.47 1903.22 2157.9 1900.68 2154.54C1901.11 2150.73 1902.61 2150.41 1905.27 2147.82L1903.47 2146.5C1886.06 2157.43 1870.39 2172.57 1854.71 2185.86C1832.43 2204.73 1809.72 2223.27 1787.78 2242.54C1789.56 2244.02 1791.37 2245.31 1793.21 2246.71C1795.9 2248.76 1796.94 2250.83 1798.59 2253.71C1787.95 2263.62 1740.69 2311.01 1727.8 2311.65C1707.5 2295.77 1691.82 2274.18 1675.35 2254.51L1608.25 2174.4L1497.54 2042.16C1476.94 2017.55 1455.59 1993.29 1435.97 1967.9Q1476.22 1936.27 1515.21 1903.1C1551.49 1941.46 1585.3 1985.81 1619.37 2026.37C1659.93 2074.66 1702.64 2122.06 1741.32 2171.83C1753.47 2160.44 1767.01 2152.01 1780.08 2141.87C1794.27 2130.85 1807.71 2118.61 1821.42 2106.97L2060.9 1904.47L2748.18 1325.54C2561.75 1100.32 2371.03 878.598 2185.87 652.315L1465.09 1258.92C1368.96 1339.58 1271.59 1419.15 1176.75 1501.28Q1260.28 1599.1 1342.75 1697.82Q1302.27 1729.11 1264.65 1763.78Z"/>
	<path d="M1798.59 2253.71C1796.94 2250.83 1795.9 2248.76 1793.21 2246.71C1791.37 2245.31 1789.56 2244.02 1787.78 2242.54C1809.72 2223.27 1832.43 2204.73 1854.71 2185.86C1870.39 2172.57 1886.06 2157.43 1903.47 2146.5L1905.27 2147.82C1902.61 2150.41 1901.11 2150.73 1900.68 2154.54C1903.22 2157.9 1905.38 2158.47 1909.23 2159.61C1909.7 2159.75 1910.18 2159.88 1910.65 2160.01L1837.11 2221.07C1824.31 2231.73 1810.48 2242.05 1798.59 2253.71Z"/>
</svg>
